<?xml version="1.0" encoding="utf-8"?>
<svg version="1.1" xmlns="http://www.w3.org/2000/svg" xmlns:xlink="http://www.w3.org/1999/xlink" width="858" height="417" viewBox="0 0 858 417">
<g style="mix-blend-mode: source-over;" transform="matrix(1,0,0,1,-137,-198)">
	<g transform="matrix(4.319342912755226,0,0,4.319342912755226,53.0688502734621,115.88589991218798)">
		<g>
			<g>
				<path d="M 17.199375 94L 17.199375 19.1875L 47.65875 19.1875L 47.65875 19.1875Q 59.521875 19.1875 68.60624999999999 23.9434375L 68.60624999999999 23.9434375L 68.60624999999999 23.9434375Q 77.690625 28.699375000000003 82.71375 37.1959375L 82.71375 37.1959375L 82.71375 37.1959375Q 87.736875 45.6925 87.736875 56.59375L 87.736875 56.59375L 87.736875 56.59375Q 87.736875 67.495 82.71375 75.9915625L 82.71375 75.9915625L 82.71375 75.9915625Q 77.690625 84.488125 68.60624999999999 89.2440625L 68.60624999999999 89.2440625L 68.60624999999999 89.2440625Q 59.521875 94 47.65875 94L 47.65875 94L 17.199375 94ZZM 25.108125 87.16L 47.231249999999996 87.16L 47.231249999999996 87.16Q 57.06375 87.16 64.438125 83.2590625L 64.438125 83.2590625L 64.438125 83.2590625Q 71.8125 79.358125 75.87375 72.4646875L 75.87375 72.4646875L 75.87375 72.4646875Q 79.935 65.57124999999999 79.935 56.59375L 79.935 56.59375L 79.935 56.59375Q 79.935 47.61625 75.87375 40.7228125L 75.87375 40.7228125L 75.87375 40.7228125Q 71.8125 33.829375 64.438125 29.9284375L 64.438125 29.9284375L 64.438125 29.9284375Q 57.06375 26.027500000000003 47.231249999999996 26.027500000000003L 47.231249999999996 26.027500000000003L 25.108125 26.027500000000003L 25.108125 87.16Z" style="fill: currentColor; stroke: url(#tABDiXFMUprA); stroke-width: 0.01; stroke-linecap: round; paint-order: stroke fill markers;"/>
			</g>
		</g>
	</g>
	<g transform="matrix(4.319342912755226,0,0,4.319342912755226,402.68630887371734,194.3370843726838)">
		<g>
			<g>
				<path d="M 21.337875 20.017875L 21.337875 20.017875Q 22.45975 17.6395 24.6810625 16.427875L 24.6810625 16.427875L 24.6810625 16.427875Q 26.902375 15.216250000000002 30.17825 15.216250000000002L 30.17825 15.216250000000002L 30.17825 18.312625L 29.415374999999997 18.26775L 29.415374999999997 18.26775Q 25.69075 18.26775 23.581625 20.556375L 23.581625 20.556375L 23.581625 20.556375Q 21.4725 22.845 21.4725 26.9735L 21.4725 26.9735L 21.4725 39L 18.286375 39L 18.286375 15.39575L 21.337875 15.39575L 21.337875 20.017875ZZM 44.53825 15.216250000000002L 44.53825 15.216250000000002Q 49.160375 15.216250000000002 51.6285 17.5273125L 51.6285 17.5273125L 51.6285 17.5273125Q 54.096625 19.838375 54.096625 24.37075L 54.096625 24.37075L 54.096625 39L 51.045125 39L 51.045125 35.32025L 51.045125 35.32025Q 49.968125 37.160125 47.881437500000004 38.19225L 47.881437500000004 38.19225L 47.881437500000004 38.19225Q 45.79475 39.224375 42.92275 39.224375L 42.92275 39.224375L 42.92275 39.224375Q 38.97375 39.224375 36.64025 37.339625L 36.64025 37.339625L 36.64025 37.339625Q 34.30675 35.454875 34.30675 32.3585L 34.30675 32.3585L 34.30675 32.3585Q 34.30675 29.351875 36.4831875 27.512L 36.4831875 27.512L 36.4831875 27.512Q 38.659625 25.672125 43.416375 25.672125L 43.416375 25.672125L 50.9105 25.672125L 50.9105 24.236125L 50.9105 24.236125Q 50.9105 21.184625 49.20525 19.591562500000002L 49.20525 19.591562500000002L 49.20525 19.591562500000002Q 47.5 17.9985 44.224125 17.9985L 44.224125 17.9985L 44.224125 17.9985Q 41.980375 17.9985 39.916125 18.738937500000002L 39.916125 18.738937500000002L 39.916125 18.738937500000002Q 37.851875 19.479375 36.371 20.78075L 36.371 20.78075L 34.935 18.402375L 34.935 18.402375Q 36.730000000000004 16.876625 39.243 16.0464375L 39.243 16.0464375L 39.243 16.0464375Q 41.756 15.216250000000002 44.53825 15.216250000000002L 44.53825 15.216250000000002ZZM 43.416375 36.711375000000004L 43.416375 36.711375000000004Q 46.108875 36.711375000000004 48.0385 35.4773125L 48.0385 35.4773125L 48.0385 35.4773125Q 49.968125 34.24325 50.9105 31.909750000000003L 50.9105 31.909750000000003L 50.9105 28.0505L 43.506125 28.0505L 43.506125 28.0505Q 37.448 28.0505 37.448 32.26875L 37.448 32.26875L 37.448 32.26875Q 37.448 34.333 39.018625 35.5221875L 39.018625 35.5221875L 39.018625 35.5221875Q 40.58925 36.711375000000004 43.416375 36.711375000000004L 43.416375 36.711375000000004ZZM 74.91862499999999 15.216250000000002L 74.91862499999999 15.216250000000002Q 78.239375 15.216250000000002 80.93187499999999 16.719562500000002L 80.93187499999999 16.719562500000002L 80.93187499999999 16.719562500000002Q 83.624375 18.222875000000002 85.150125 20.960250000000002L 85.150125 20.960250000000002L 85.150125 20.960250000000002Q 86.67587499999999 23.697625000000002 86.67587499999999 27.197875L 86.67587499999999 27.197875L 86.67587499999999 27.197875Q 86.67587499999999 30.743000000000002 85.150125 33.480375L 85.150125 33.480375L 85.150125 33.480375Q 83.624375 36.21775 80.9543125 37.7210625L 80.9543125 37.7210625L 80.9543125 37.7210625Q 78.28425 39.224375 74.91862499999999 39.224375L 74.91862499999999 39.224375L 74.91862499999999 39.224375Q 72.046625 39.224375 69.7355625 38.0351875L 69.7355625 38.0351875L 69.7355625 38.0351875Q 67.4245 36.846000000000004 65.943625 34.557375L 65.943625 34.557375L 65.943625 47.70575L 62.7575 47.70575L 62.7575 15.39575L 65.809 15.39575L 65.809 20.06275L 65.809 20.06275Q 67.245 17.72925 69.6009375 16.47275L 69.6009375 16.47275L 69.6009375 16.47275Q 71.956875 15.216250000000002 74.91862499999999 15.216250000000002L 74.91862499999999 15.216250000000002ZZM 74.69425 36.39725L 74.69425 36.39725Q 77.162375 36.39725 79.18175 35.2529375L 79.18175 35.2529375L 79.18175 35.2529375Q 81.201125 34.108625 82.3454375 31.9995L 82.3454375 31.9995L 82.3454375 31.9995Q 83.48975 29.890375 83.48975 27.197875L 83.48975 27.197875L 83.48975 27.197875Q 83.48975 24.505375 82.3454375 22.4186875L 82.3454375 22.4186875L 82.3454375 22.4186875Q 81.201125 20.332 79.18175 19.16525L 79.18175 19.16525L 79.18175 19.16525Q 77.162375 17.9985 74.69425 17.9985L 74.69425 17.9985L 74.69425 17.9985Q 72.18125 17.9985 70.1843125 19.16525L 70.1843125 19.16525L 70.1843125 19.16525Q 68.187375 20.332 67.0430625 22.4186875L 67.0430625 22.4186875L 67.0430625 22.4186875Q 65.89875 24.505375 65.89875 27.197875L 65.89875 27.197875L 65.89875 27.197875Q 65.89875 29.890375 67.0430625 31.9995L 67.0430625 31.9995L 67.0430625 31.9995Q 68.187375 34.108625 70.1843125 35.2529375L 70.1843125 35.2529375L 70.1843125 35.2529375Q 72.18125 36.39725 74.69425 36.39725L 74.69425 36.39725ZZM 113.780375 27.197875L 113.7355 28.185125L 93.99050000000001 28.185125L 93.99050000000001 28.185125Q 94.25975000000001 31.864875 96.817625 34.1310625L 96.817625 34.1310625L 96.817625 34.1310625Q 99.3755 36.39725 103.27962500000001 36.39725L 103.27962500000001 36.39725L 103.27962500000001 36.39725Q 105.4785 36.39725 107.318375 35.6119375L 107.318375 35.6119375L 107.318375 35.6119375Q 109.15825000000001 34.826625 110.50450000000001 33.300875L 110.50450000000001 33.300875L 112.29950000000001 35.365125L 112.29950000000001 35.365125Q 110.728875 37.249875 108.3729375 38.237125L 108.3729375 38.237125L 108.3729375 38.237125Q 106.01700000000001 39.224375 103.189875 39.224375L 103.189875 39.224375L 103.189875 39.224375Q 99.555 39.224375 96.7503125 37.6761875L 96.7503125 37.6761875L 96.7503125 37.6761875Q 93.945625 36.128 92.375 33.390625L 92.375 33.390625L 92.375 33.390625Q 90.80437500000001 30.65325 90.80437500000001 27.197875L 90.80437500000001 27.197875L 90.80437500000001 27.197875Q 90.80437500000001 23.7425 92.3076875 21.005125L 92.3076875 21.005125L 92.3076875 21.005125Q 93.811 18.26775 96.4361875 16.742L 96.4361875 16.742L 96.4361875 16.742Q 99.061375 15.216250000000002 102.33725000000001 15.216250000000002L 102.33725000000001 15.216250000000002L 102.33725000000001 15.216250000000002Q 105.613125 15.216250000000002 108.21587500000001 16.742L 108.21587500000001 16.742L 108.21587500000001 16.742Q 110.818625 18.26775 112.29950000000001 20.9826875L 112.29950000000001 20.9826875L 112.29950000000001 20.9826875Q 113.780375 23.697625000000002 113.780375 27.197875L 113.780375 27.197875ZZM 102.33725000000001 17.953625000000002L 102.33725000000001 17.953625000000002Q 98.92675 17.953625000000002 96.6156875 20.1300625L 96.6156875 20.1300625L 96.6156875 20.1300625Q 94.304625 22.3065 93.99050000000001 25.80675L 93.99050000000001 25.80675L 110.728875 25.80675L 110.728875 25.80675Q 110.41475 22.3065 108.1036875 20.1300625L 108.1036875 20.1300625L 108.1036875 20.1300625Q 105.792625 17.953625000000002 102.33725000000001 17.953625000000002L 102.33725000000001 17.953625000000002ZZM 126.614625 39.224375L 126.614625 39.224375Q 123.742625 39.224375 121.11743750000001 38.3941875L 121.11743750000001 38.3941875L 121.11743750000001 38.3941875Q 118.49225000000001 37.564 117.011375 36.3075L 117.011375 36.3075L 118.44737500000001 33.7945L 118.44737500000001 33.7945Q 119.92825 34.96125 122.17200000000001 35.7016875L 122.17200000000001 35.7016875L 122.17200000000001 35.7016875Q 124.41575 36.442125 126.83900000000001 36.442125L 126.83900000000001 36.442125L 126.83900000000001 36.442125Q 130.07 36.442125 131.6181875 35.4324375L 131.6181875 35.4324375L 131.6181875 35.4324375Q 133.16637500000002 34.42275 133.16637500000002 32.582875L 133.16637500000002 32.582875L 133.16637500000002 32.582875Q 133.16637500000002 31.2815 132.31375 30.541062500000002L 132.31375 30.541062500000002L 132.31375 30.541062500000002Q 131.461125 29.800625 130.15975 29.4191875L 130.15975 29.4191875L 130.15975 29.4191875Q 128.858375 29.037750000000003 126.70437500000001 28.67875L 126.70437500000001 28.67875L 126.70437500000001 28.67875Q 123.83237500000001 28.14025 122.08225 27.5793125L 122.08225 27.5793125L 122.08225 27.5793125Q 120.332125 27.018375 119.09806250000001 25.672125L 119.09806250000001 25.672125L 119.09806250000001 25.672125Q 117.864 24.325875 117.864 21.9475L 117.864 21.9475L 117.864 21.9475Q 117.864 18.98575 120.332125 17.101L 120.332125 17.101L 120.332125 17.101Q 122.80025 15.216250000000002 127.19800000000001 15.216250000000002L 127.19800000000001 15.216250000000002L 127.19800000000001 15.216250000000002Q 129.486625 15.216250000000002 131.77525 15.822062500000001L 131.77525 15.822062500000001L 131.77525 15.822062500000001Q 134.063875 16.427875 135.54475000000002 17.415125L 135.54475000000002 17.415125L 134.153625 19.973L 134.153625 19.973Q 131.23675 17.953625000000002 127.19800000000001 17.953625000000002L 127.19800000000001 17.953625000000002L 127.19800000000001 17.953625000000002Q 124.1465 17.953625000000002 122.5983125 19.030625L 122.5983125 19.030625L 122.5983125 19.030625Q 121.05012500000001 20.107625000000002 121.05012500000001 21.85775L 121.05012500000001 21.85775L 121.05012500000001 21.85775Q 121.05012500000001 23.204 121.9251875 24.01175L 121.9251875 24.01175L 121.9251875 24.01175Q 122.80025 24.8195 124.10162500000001 25.200937500000002L 124.10162500000001 25.200937500000002L 124.10162500000001 25.200937500000002Q 125.403 25.582375 127.691625 25.98625L 127.691625 25.98625L 127.691625 25.98625Q 130.51875 26.52475 132.22400000000002 27.06325L 132.22400000000002 27.06325L 132.22400000000002 27.06325Q 133.92925 27.601750000000003 135.140875 28.903125000000003L 135.140875 28.903125000000003L 135.140875 28.903125000000003Q 136.35250000000002 30.2045 136.35250000000002 32.493125L 136.35250000000002 32.493125L 136.35250000000002 32.493125Q 136.35250000000002 35.5895 133.7721875 37.4069375L 133.7721875 37.4069375L 133.7721875 37.4069375Q 131.191875 39.224375 126.614625 39.224375L 126.614625 39.224375Z" style="fill: currentColor; stroke: currentColor; stroke-width: 1.34625; stroke-miterlimit: 10; paint-order: fill stroke markers;"/>
			</g>
		</g>
	</g>
	<g transform="matrix(4.319342912755226,0,0,4.319342912755226,518.2959058239267,381.2455248863881)">
		<g>
			<g>
				<path d="M 24.799500000000002 21.564875L 24.763625 22.354125L 8.978625000000001 22.354125L 8.978625000000001 22.354125Q 9.193875 25.295875 11.23875 27.1075625L 11.23875 27.1075625L 11.23875 27.1075625Q 13.283625 28.919249999999998 16.40475 28.919249999999998L 16.40475 28.919249999999998L 16.40475 28.919249999999998Q 18.162625000000002 28.919249999999998 19.6335 28.2914375L 19.6335 28.2914375L 19.6335 28.2914375Q 21.104375 27.663625 22.180625000000003 26.443875L 22.180625000000003 26.443875L 23.615625 28.094125L 23.615625 28.094125Q 22.360000000000003 29.600875 20.4765625 30.390125L 20.4765625 30.390125L 20.4765625 30.390125Q 18.593125 31.179375 16.333000000000002 31.179375L 16.333000000000002 31.179375L 16.333000000000002 31.179375Q 13.427125 31.179375 11.1849375 29.9416875L 11.1849375 29.9416875L 11.1849375 29.9416875Q 8.94275 28.704 7.687125 26.515625L 7.687125 26.515625L 7.687125 26.515625Q 6.4315 24.32725 6.4315 21.564875L 6.4315 21.564875L 6.4315 21.564875Q 6.4315 18.8025 7.633312500000001 16.614124999999998L 7.633312500000001 16.614124999999998L 7.633312500000001 16.614124999999998Q 8.835125000000001 14.425749999999997 10.933812500000002 13.206L 10.933812500000002 13.206L 10.933812500000002 13.206Q 13.0325 11.986249999999998 15.651375000000002 11.986249999999998L 15.651375000000002 11.986249999999998L 15.651375000000002 11.986249999999998Q 18.27025 11.986249999999998 20.351000000000003 13.206L 20.351000000000003 13.206L 20.351000000000003 13.206Q 22.43175 14.425749999999997 23.615625 16.5961875L 23.615625 16.5961875L 23.615625 16.5961875Q 24.799500000000002 18.766624999999998 24.799500000000002 21.564875L 24.799500000000002 21.564875ZZM 15.651375000000002 14.174624999999999L 15.651375000000002 14.174624999999999Q 12.924875 14.174624999999999 11.077312500000001 15.914562499999999L 11.077312500000001 15.914562499999999L 11.077312500000001 15.914562499999999Q 9.22975 17.6545 8.978625000000001 20.452749999999998L 8.978625000000001 20.452749999999998L 22.360000000000003 20.452749999999998L 22.360000000000003 20.452749999999998Q 22.108875 17.6545 20.261312500000003 15.914562499999999L 20.261312500000003 15.914562499999999L 20.261312500000003 15.914562499999999Q 18.41375 14.174624999999999 15.651375000000002 14.174624999999999L 15.651375000000002 14.174624999999999ZZM 35.05975 31.179375L 35.05975 31.179375Q 32.76375 31.179375 30.6650625 30.5156875L 30.6650625 30.5156875L 30.6650625 30.5156875Q 28.566375 29.852 27.3825 28.8475L 27.3825 28.8475L 28.530500000000004 26.8385L 28.530500000000004 26.8385Q 29.714375000000004 27.77125 31.508125000000003 28.3631875L 31.508125000000003 28.3631875L 31.508125000000003 28.3631875Q 33.301875 28.955125 35.239125 28.955125L 35.239125 28.955125L 35.239125 28.955125Q 37.822125 28.955125 39.05981250000001 28.1479375L 39.05981250000001 28.1479375L 39.05981250000001 28.1479375Q 40.2975 27.34075 40.2975 25.869875L 40.2975 25.869875L 40.2975 25.869875Q 40.2975 24.8295 39.615875 24.2375625L 39.615875 24.2375625L 39.615875 24.2375625Q 38.934250000000006 23.645625 37.893875 23.340687499999998L 37.893875 23.340687499999998L 37.893875 23.340687499999998Q 36.853500000000004 23.03575 35.1315 22.74875L 35.1315 22.74875L 35.1315 22.74875Q 32.8355 22.31825 31.436375 21.8698125L 31.436375 21.8698125L 31.436375 21.8698125Q 30.03725 21.421374999999998 29.050687500000002 20.345125L 29.050687500000002 20.345125L 29.050687500000002 20.345125Q 28.064125 19.268875 28.064125 17.3675L 28.064125 17.3675L 28.064125 17.3675Q 28.064125 14.999749999999999 30.03725 13.492999999999999L 30.03725 13.492999999999999L 30.03725 13.492999999999999Q 32.010375 11.986249999999998 35.526125 11.986249999999998L 35.526125 11.986249999999998L 35.526125 11.986249999999998Q 37.35575 11.986249999999998 39.185375 12.470562499999996L 39.185375 12.470562499999996L 39.185375 12.470562499999996Q 41.015 12.954874999999998 42.198875 13.744124999999997L 42.198875 13.744124999999997L 41.08675 15.788999999999998L 41.08675 15.788999999999998Q 38.754875000000006 14.174624999999999 35.526125 14.174624999999999L 35.526125 14.174624999999999L 35.526125 14.174624999999999Q 33.086625000000005 14.174624999999999 31.8489375 15.035624999999998L 31.8489375 15.035624999999998L 31.8489375 15.035624999999998Q 30.611250000000002 15.896624999999998 30.611250000000002 17.295749999999998L 30.611250000000002 17.295749999999998L 30.611250000000002 17.295749999999998Q 30.611250000000002 18.372 31.310812500000004 19.01775L 31.310812500000004 19.01775L 31.310812500000004 19.01775Q 32.010375 19.6635 33.05075 19.9684375L 33.05075 19.9684375L 33.05075 19.9684375Q 34.091125000000005 20.273374999999998 35.920750000000005 20.596249999999998L 35.920750000000005 20.596249999999998L 35.920750000000005 20.596249999999998Q 38.180875 21.02675 39.544125 21.45725L 39.544125 21.45725L 39.544125 21.45725Q 40.907375 21.887749999999997 41.876000000000005 22.928125L 41.876000000000005 22.928125L 41.876000000000005 22.928125Q 42.84462500000001 23.9685 42.84462500000001 25.798125L 42.84462500000001 25.798125L 42.84462500000001 25.798125Q 42.84462500000001 28.2735 40.7818125 29.7264375L 40.7818125 29.7264375L 40.7818125 29.7264375Q 38.719 31.179375 35.05975 31.179375L 35.05975 31.179375ZZM 47.544250000000005 31L 47.544250000000005 12.129749999999998L 50.091375000000006 12.129749999999998L 50.091375000000006 31L 47.544250000000005 31ZZM 48.835750000000004 8.004124999999998L 48.835750000000004 8.004124999999998Q 48.0465 8.004124999999998 47.508375 7.4659999999999975L 47.508375 7.4659999999999975L 47.508375 7.4659999999999975Q 46.97025000000001 6.927874999999997 46.97025000000001 6.174499999999998L 46.97025000000001 6.174499999999998L 46.97025000000001 6.174499999999998Q 46.97025000000001 5.456999999999997 47.508375 4.918874999999996L 47.508375 4.918874999999996L 47.508375 4.918874999999996Q 48.0465 4.3807499999999955 48.835750000000004 4.3807499999999955L 48.835750000000004 4.3807499999999955L 48.835750000000004 4.3807499999999955Q 49.62500000000001 4.3807499999999955 50.16312500000001 4.900937499999998L 50.16312500000001 4.900937499999998L 50.16312500000001 4.900937499999998Q 50.70125 5.421124999999996 50.70125 6.1386249999999976L 50.70125 6.1386249999999976L 50.70125 6.1386249999999976Q 50.70125 6.927874999999997 50.16312500000001 7.4659999999999975L 50.16312500000001 7.4659999999999975L 50.16312500000001 7.4659999999999975Q 49.62500000000001 8.004124999999998 48.835750000000004 8.004124999999998L 48.835750000000004 8.004124999999998ZZM 72.22625000000001 12.129749999999998L 74.66575 12.129749999999998L 74.66575 28.704L 74.66575 28.704Q 74.66575 33.511250000000004 72.3159375 35.8251875L 72.3159375 35.8251875L 72.3159375 35.8251875Q 69.966125 38.139125 65.230625 38.139125L 65.230625 38.139125L 65.230625 38.139125Q 62.61175 38.139125 60.2619375 37.3678125L 60.2619375 37.3678125L 60.2619375 37.3678125Q 57.912125 36.5965 56.441250000000004 35.23325L 56.441250000000004 35.23325L 57.73275 33.296L 57.73275 33.296Q 59.096000000000004 34.51575 61.051187500000005 35.197375L 61.051187500000005 35.197375L 61.051187500000005 35.197375Q 63.006375000000006 35.879 65.158875 35.879L 65.158875 35.879L 65.158875 35.879Q 68.746375 35.879 70.4325 34.2108125L 70.4325 34.2108125L 70.4325 34.2108125Q 72.11862500000001 32.542625 72.11862500000001 29.026875L 72.11862500000001 29.026875L 72.11862500000001 26.62325L 72.11862500000001 26.62325Q 70.93475000000001 28.417 69.0154375 29.34975L 69.0154375 29.34975L 69.0154375 29.34975Q 67.096125 30.2825 64.76425 30.2825L 64.76425 30.2825L 64.76425 30.2825Q 62.109500000000004 30.2825 59.9390625 29.1165625L 59.9390625 29.1165625L 59.9390625 29.1165625Q 57.768625 27.950625 56.5309375 25.8519375L 56.5309375 25.8519375L 56.5309375 25.8519375Q 55.29325 23.75325 55.29325 21.0985L 55.29325 21.0985L 55.29325 21.0985Q 55.29325 18.443749999999998 56.5309375 16.363L 56.5309375 16.363L 56.5309375 16.363Q 57.768625 14.282249999999998 59.921125 13.134249999999998L 59.921125 13.134249999999998L 59.921125 13.134249999999998Q 62.073625 11.986249999999998 64.76425 11.986249999999998L 64.76425 11.986249999999998L 64.76425 11.986249999999998Q 67.16787500000001 11.986249999999998 69.105125 12.954874999999998L 69.105125 12.954874999999998L 69.105125 12.954874999999998Q 71.042375 13.923499999999997 72.22625000000001 15.753124999999999L 72.22625000000001 15.753124999999999L 72.22625000000001 12.129749999999998ZZM 65.015375 28.022375L 65.015375 28.022375Q 67.06025 28.022375 68.7105 27.1434375L 68.7105 27.1434375L 68.7105 27.1434375Q 70.36075 26.264499999999998 71.2755625 24.686L 71.2755625 24.686L 71.2755625 24.686Q 72.190375 23.107499999999998 72.190375 21.0985L 72.190375 21.0985L 72.190375 21.0985Q 72.190375 19.0895 71.2755625 17.528937499999998L 71.2755625 17.528937499999998L 71.2755625 17.528937499999998Q 70.36075 15.968374999999998 68.7284375 15.089437499999999L 68.7284375 15.089437499999999L 68.7284375 15.089437499999999Q 67.096125 14.2105 65.015375 14.2105L 65.015375 14.2105L 65.015375 14.2105Q 62.9705 14.2105 61.338187500000004 15.071499999999999L 61.338187500000004 15.071499999999999L 61.338187500000004 15.071499999999999Q 59.705875 15.932499999999997 58.7910625 17.511L 58.7910625 17.511L 58.7910625 17.511Q 57.87625 19.0895 57.87625 21.0985L 57.87625 21.0985L 57.87625 21.0985Q 57.87625 23.107499999999998 58.7910625 24.686L 58.7910625 24.686L 58.7910625 24.686Q 59.705875 26.264499999999998 61.338187500000004 27.1434375L 61.338187500000004 27.1434375L 61.338187500000004 27.1434375Q 62.9705 28.022375 65.015375 28.022375L 65.015375 28.022375ZZM 91.419375 11.986249999999998L 91.419375 11.986249999999998Q 94.971 11.986249999999998 97.06968750000001 14.049062499999998L 97.06968750000001 14.049062499999998L 97.06968750000001 14.049062499999998Q 99.16837500000001 16.111874999999998 99.16837500000001 20.058124999999997L 99.16837500000001 20.058124999999997L 99.16837500000001 31L 96.62125 31L 96.62125 20.30925L 96.62125 20.30925Q 96.62125 17.3675 95.15037500000001 15.824874999999999L 95.15037500000001 15.824874999999999L 95.15037500000001 15.824874999999999Q 93.6795 14.282249999999998 90.953 14.282249999999998L 90.953 14.282249999999998L 90.953 14.282249999999998Q 87.903625 14.282249999999998 86.1278125 16.0939375L 86.1278125 16.0939375L 86.1278125 16.0939375Q 84.352 17.905625 84.352 21.0985L 84.352 21.0985L 84.352 31L 81.80487500000001 31L 81.80487500000001 12.129749999999998L 84.244375 12.129749999999998L 84.244375 15.609624999999998L 84.244375 15.609624999999998Q 85.28475 13.887624999999996 87.13231250000001 12.936937499999999L 87.13231250000001 12.936937499999999L 87.13231250000001 12.936937499999999Q 88.979875 11.986249999999998 91.419375 11.986249999999998L 91.419375 11.986249999999998Z" style="fill: currentColor; stroke: currentColor; stroke-width: 1.07625; stroke-miterlimit: 10; paint-order: fill stroke markers;"/>
			</g>
		</g>
	</g>
	<g transform="matrix(2.0669705674580583,0,0,2.0669705674580583,182.64913765612047,258.42421603311004)">
		<g>
			<g>
				<path d="M 29.370625 173L 29.370625 36.5L 84.945625 36.5L 84.945625 36.5Q 106.590625 36.5 123.165625 45.177499999999995L 123.165625 45.177499999999995L 123.165625 45.177499999999995Q 139.740625 53.85499999999999 148.90562500000001 69.3575L 148.90562500000001 69.3575L 148.90562500000001 69.3575Q 158.070625 84.86 158.070625 104.75L 158.070625 104.75L 158.070625 104.75Q 158.070625 124.64 148.90562500000001 140.14249999999998L 148.90562500000001 140.14249999999998L 148.90562500000001 140.14249999999998Q 139.740625 155.645 123.165625 164.3225L 123.165625 164.3225L 123.165625 164.3225Q 106.590625 173 84.945625 173L 84.945625 173L 29.370625 173ZZM 43.800625000000004 160.52L 84.165625 160.52L 84.165625 160.52Q 102.105625 160.52 115.560625 153.4025L 115.560625 153.4025L 115.560625 153.4025Q 129.015625 146.285 136.425625 133.70749999999998L 136.425625 133.70749999999998L 136.425625 133.70749999999998Q 143.835625 121.13 143.835625 104.75L 143.835625 104.75L 143.835625 104.75Q 143.835625 88.36999999999999 136.425625 75.79249999999999L 136.425625 75.79249999999999L 136.425625 75.79249999999999Q 129.015625 63.21499999999999 115.560625 56.0975L 115.560625 56.0975L 115.560625 56.0975Q 102.105625 48.97999999999999 84.165625 48.97999999999999L 84.165625 48.97999999999999L 43.800625000000004 48.97999999999999L 43.800625000000004 160.52Z" style="fill: currentColor; paint-order: stroke fill markers;"/>
			</g>
		</g>
	</g>
</g>
</svg>
