<svg xmlns="http://www.w3.org/2000/svg" width="858" height="417"><g style="mix-blend-mode:source-over" fill="currentColor"><path d="M17.2 94V19.187h30.459q11.863 0 20.947 4.756h0q9.085 4.756 14.108 13.253h0q5.023 8.497 5.023 19.398h0q0 10.901-5.023 19.398h0q-5.023 8.496-14.108 13.252h0Q59.522 94 47.66 94h0H17.2zm7.908-6.84h22.123q9.833 0 17.207-3.9h0q7.374-3.902 11.436-10.795h0q4.061-6.894 4.061-15.871h0q0-8.978-4.061-15.871h0q-4.061-6.894-11.436-10.795h0q-7.374-3.9-17.207-3.9h0-22.123V87.16z" stroke="url(#tABDiXFMUprA)" stroke-width=".01" stroke-linecap="round" paint-order="stroke fill markers" transform="translate(-83.931 -82.114) scale(4.31934)"/><path d="M357.852 82.801h0q4.846-10.273 14.44-15.506h0q9.595-5.234 23.745-5.234h0v13.375l-3.296-.194h0q-16.088 0-25.198 9.885h0q-9.11 9.885-9.11 27.718h0v51.946h-13.762V62.837h13.18V82.8zm100.21-20.74h0q19.965 0 30.626 9.983h0q10.66 9.982 10.66 29.559h0v63.188h-13.18v-15.894h0q-4.652 7.947-13.665 12.406h0q-9.013 4.458-21.419 4.458h0q-17.057 0-27.136-8.141h0q-10.08-8.141-10.08-21.515h0q0-12.987 9.402-20.934h0q9.4-7.947 29.947-7.947h32.37v-6.203h0q0-13.18-7.366-20.061h0q-7.366-6.881-21.516-6.881h0q-9.691 0-18.607 3.198h0q-8.916 3.198-15.313 8.82h0l-6.202-10.274h0q7.753-6.59 18.607-10.176h0q10.855-3.586 22.872-3.586h0zm-4.845 92.845h0q11.63 0 19.964-5.33h0q8.335-5.33 12.405-15.41h0v-16.67h-31.982 0q-26.167 0-26.167 18.22h0q0 8.917 6.784 14.054h0q6.784 5.136 18.996 5.136h0zm136.069-92.845h0q14.343 0 25.973 6.494h0q11.63 6.493 18.22 18.317h0q6.59 11.823 6.59 26.942h0q0 15.313-6.59 27.136h0q-6.59 11.824-18.123 18.317h0q-11.533 6.494-26.07 6.494h0q-12.406 0-22.388-5.137h0q-9.982-5.136-16.379-15.022h0v56.793h-13.762V62.837h13.18v20.158h0q6.204-10.08 16.38-15.506h0q10.176-5.428 22.969-5.428h0zm-.97 91.488h0q10.661 0 19.383-4.942h0q8.723-4.943 13.665-14.053h0q4.943-9.11 4.943-20.74h0q0-11.63-4.943-20.643h0q-4.942-9.013-13.665-14.053h0q-8.722-5.04-19.383-5.04h0q-10.854 0-19.48 5.04h0q-8.625 5.04-13.568 14.053h0q-4.942 9.013-4.942 20.643h0q0 11.63 4.942 20.74h0q4.943 9.11 13.568 14.053h0q8.626 4.942 19.48 4.942h0zm168.827-39.735l-.194 4.264h-85.285 0q1.162 15.894 12.21 25.683h0q11.05 9.788 27.912 9.788h0q9.498 0 17.445-3.392h0q7.947-3.392 13.762-9.982h0l7.753 8.916h0q-6.784 8.141-16.96 12.405h0q-10.176 4.265-22.387 4.265h0q-15.7 0-27.815-6.688h0q-12.114-6.687-18.898-18.51h0q-6.784-11.824-6.784-26.749h0q0-14.925 6.493-26.749h0q6.493-11.823 17.832-18.413h0q11.34-6.59 25.489-6.59h0q14.15 0 25.392 6.59h0q11.242 6.59 17.638 18.317h0q6.397 11.726 6.397 26.845h0zm-49.427-39.93h0q-14.731 0-24.713 9.402h0q-9.983 9.4-11.34 24.52h72.3q-1.358-15.12-11.34-24.52h0q-9.982-9.401-24.907-9.401h0zm104.862 91.877h0q-12.405 0-23.744-3.586h0q-11.339-3.586-17.735-9.013h0l6.202-10.855h0q6.397 5.04 16.088 8.238h0q9.692 3.198 20.158 3.198h0q13.956 0 20.643-4.361h0q6.688-4.361 6.688-12.308h0q0-5.621-3.683-8.82h0q-3.683-3.198-9.304-4.845h0q-5.621-1.648-14.925-3.199h0q-12.405-2.326-19.965-4.748h0q-7.559-2.423-12.89-8.238h0q-5.33-5.815-5.33-16.088h0q0-12.793 10.661-20.934h0q10.66-8.14 29.656-8.14h0q9.885 0 19.77 2.616h0q9.886 2.617 16.283 6.881h0l-6.01 11.048h0q-12.598-8.722-30.043-8.722h0q-13.18 0-19.868 4.652h0q-6.687 4.652-6.687 12.211h0q0 5.815 3.78 9.304h0q3.78 3.489 9.4 5.137h0q5.622 1.647 15.507 3.392h0q12.212 2.326 19.577 4.652h0q7.366 2.326 12.6 7.947h0q5.233 5.62 5.233 15.506h0q0 13.374-11.146 21.224h0q-11.145 7.85-30.916 7.85h0z" stroke="currentColor" stroke-width="5.814" stroke-miterlimit="10" paint-order="fill stroke markers"/><path d="M488.413 276.392l-.155 3.409h-68.18 0q.93 12.706 9.762 20.531h0q8.832 7.826 22.314 7.826h0q7.593 0 13.946-2.712h0q6.353-2.712 11.002-7.98h0l6.198 7.128h0q-5.424 6.508-13.559 9.917h0q-8.135 3.409-17.897 3.409h0q-12.552 0-22.237-5.346h0q-9.684-5.346-15.108-14.798h0q-5.423-9.453-5.423-21.384h0q0-11.932 5.19-21.384h0q5.192-9.453 14.257-14.721h0q9.065-5.269 20.377-5.269h0q11.311 0 20.299 5.269h0q8.987 5.268 14.1 14.643h0q5.114 9.375 5.114 21.462h0zM448.9 244.47h0q-11.777 0-19.757 7.515h0q-7.98 7.515-9.065 19.602h57.798q-1.084-12.087-9.065-19.602h0q-7.98-7.515-19.911-7.515h0zm83.831 73.449h0q-9.917 0-18.982-2.867h0q-9.065-2.866-14.179-7.205h0l4.959-8.678h0q5.113 4.03 12.861 6.586h0q7.748 2.557 16.116 2.557h0q11.157 0 16.503-3.487h0q5.346-3.486 5.346-9.84h0q0-4.493-2.945-7.05h0q-2.944-2.557-7.437-3.874h0q-4.494-1.317-11.932-2.557h0q-9.917-1.86-15.96-3.796h0q-6.044-1.937-10.305-6.586h0q-4.262-4.649-4.262-12.861h0q0-10.227 8.523-16.736h0q8.523-6.508 23.708-6.508h0q7.903 0 15.806 2.092h0q7.903 2.092 13.016 5.501h0l-4.803 8.833h0q-10.072-6.973-24.019-6.973h0q-10.537 0-15.883 3.719h0q-5.346 3.718-5.346 9.762h0q0 4.648 3.022 7.438h0q3.022 2.789 7.515 4.106h0q4.494 1.317 12.397 2.712h0q9.762 1.86 15.65 3.719h0q5.889 1.86 10.073 6.353h0q4.184 4.494 4.184 12.396h0q0 10.692-8.91 16.968h0q-8.91 6.276-24.716 6.276h0zm53.925-.775v-81.507h11.002v81.507h-11.002zm5.578-99.327h0q-3.409 0-5.733-2.324h0q-2.324-2.325-2.324-5.579h0q0-3.099 2.324-5.423h0q2.324-2.325 5.733-2.325h0q3.41 0 5.734 2.247h0q2.324 2.247 2.324 5.346h0q0 3.41-2.324 5.734h0q-2.325 2.324-5.734 2.324h0zm101.032 17.82h10.537v71.59h0q0 20.764-10.15 30.759h0q-10.15 9.994-30.604 9.994h0q-11.311 0-21.461-3.331h0q-10.15-3.332-16.503-9.22h0l5.578-8.368h0q5.889 5.269 14.334 8.213h0q8.445 2.944 17.742 2.944h0q15.496 0 22.779-7.205h0q7.283-7.206 7.283-22.391h0V298.24h0q-5.114 7.748-13.404 11.777h0q-8.29 4.029-18.362 4.029h0q-11.467 0-20.842-5.036h0q-9.375-5.036-14.72-14.101h0q-5.347-9.065-5.347-20.532h0q0-11.467 5.346-20.454h0q5.346-8.988 14.644-13.946h0q9.297-4.959 20.919-4.959h0q10.382 0 18.75 4.184h0q8.367 4.184 13.48 12.087h0v-15.65zm-31.146 68.646h0q8.832 0 15.96-3.797h0q7.128-3.796 11.08-10.614h0q3.95-6.818 3.95-15.496h0q0-8.677-3.95-15.418h0q-3.952-6.74-11.002-10.537h0q-7.05-3.796-16.038-3.796h0q-8.833 0-15.883 3.719h0q-7.05 3.718-11.002 10.537h0q-3.952 6.818-3.952 15.495h0q0 8.678 3.952 15.496h0q3.951 6.818 11.002 10.614h0q7.05 3.797 15.883 3.797h0zm114.048-69.266h0q15.34 0 24.405 8.91h0q9.065 8.91 9.065 25.955h0v47.262h-11.002v-46.177h0q0-12.706-6.353-19.37h0q-6.353-6.663-18.13-6.663h0q-13.171 0-20.842 7.826h0q-7.67 7.825-7.67 21.616h0v42.768H734.64v-81.507h10.537v15.03h0q4.494-7.437 12.474-11.543h0q7.98-4.107 18.518-4.107h0z" stroke="currentColor" stroke-width="4.648" stroke-miterlimit="10" paint-order="fill stroke markers"/><path d="M106.357 418.01V135.87H221.23q44.74 0 79 17.936t53.204 49.98q18.943 32.042 18.943 73.154 0 41.112-18.943 73.156-18.944 32.043-53.204 49.979-34.26 17.936-79 17.936H106.357zm29.827-25.796h83.433q37.081 0 64.893-14.711 27.81-14.712 43.127-40.71 15.316-25.997 15.316-59.854t-15.316-59.854q-15.316-25.997-43.127-40.709-27.812-14.712-64.893-14.712h-83.433v230.55z" paint-order="stroke fill markers"/></g></svg>